<svg xmlns="http://www.w3.org/2000/svg" width="81" height="66" viewBox="0 0 81 66">
  <g>
    <circle cx="42" cy="31" r="31" fill="#ffdb43"/>
    <g>
      <ellipse cx="34.5" cy="50.25" rx="15.5" ry="15.25" fill="#fff"/>
      <ellipse cx="35.338" cy="55" rx="24.662" ry="9" fill="#fff"/>
      <circle cx="48" cy="50" r="4" fill="#fff"/>
      <rect x="7" y="54" width="58" height="11" fill="#fff"/>
      <rect x="2" y="59" width="35" height="7" fill="#fff"/>
      <rect x="58" y="55" width="10" height="10" fill="#fff"/>
      <rect x="68" y="57" width="7" height="8" fill="#fff"/>
      <rect x="67" y="62" width="12" height="4" fill="#fff"/>
    </g>
    <g>
      <path d="M.5,66c0-9.949,8.5-18,19-18" fill="#fff" stroke="#000" stroke-miterlimit="10"/>
      <path d="M19.5,48c0-7.186,6.709-13,15-13" fill="#fff" stroke="#000" stroke-miterlimit="10"/>
      <path d="M49.444,47.568c0-6.947-6.709-12.568-15-12.568" fill="#fff" stroke="#000" stroke-miterlimit="10"/>
      <path d="M49.747,46.556c3.505-1.547,14.537,6.228,15.548,18.976" fill="#fff" stroke="#000" stroke-miterlimit="10"/>
      <line x1="81" y1="65.5" y2="65.5" fill="none" stroke="#000" stroke-miterlimit="10"/>
      <path d="M61,53.5c10.5,0,19,5.367,19,12" fill="#fff" stroke="#000" stroke-miterlimit="10"/>
    </g>
  </g>
</svg>
