<svg xmlns="http://www.w3.org/2000/svg" width="408" height="408" viewBox="0 0 408 408">
  <g>
    <path d="M204,7.628a203.054,203.054,0,0,1,79.016,390.048A203.053,203.053,0,0,1,124.984,23.58,201.729,201.729,0,0,1,204,7.628m0-1c-112.666,0-204,91.334-204,204s91.334,204,204,204,204-91.334,204-204-91.334-204-204-204Z" transform="translate(0 -6.628)" fill="#999"/>
    <polygon points="204.098 94 197.26 195.081 210.937 195.081 204.098 94" fill="#999"/>
    <polygon points="204.131 314 197.293 212.919 210.97 212.919 204.131 314" fill="#999"/>
    <polygon points="94 204.253 195.081 211.091 195.081 197.414 94 204.253" fill="#999"/>
    <polygon points="314 204.22 212.919 211.058 212.919 197.381 314 204.22" fill="#999"/>
    <polygon points="150.187 149.456 196.562 202.561 203.292 195.831 150.187 149.456" fill="#999"/>
    <polygon points="258.461 257.698 205.356 211.323 212.086 204.593 258.461 257.698" fill="#999"/>
    <polygon points="150.263 257.887 203.368 211.512 196.638 204.782 150.263 257.887" fill="#999"/>
    <polygon points="258.505 149.613 212.13 202.718 205.4 195.988 258.505 149.613" fill="#999"/>
    <circle cx="204" cy="204" r="12" fill="#999"/>
    <path d="M210.012,30.45a59,59,0,0,1,3.3,5.4h.24s-.24-3.24-.24-7.74V12.331h7.259V47.669h-6.779L200.772,29.73a48.884,48.884,0,0,1-3.6-5.76h-.24a79.638,79.638,0,0,1,.36,8.1v15.6h-7.26V12.331h7.02Z" transform="translate(0 -6.628)" fill="#999"/>
    <path d="M196.787,398.9a6.749,6.749,0,0,0,6.9,5.88c3.06,0,5.219-1.319,5.219-4.019,0-2.52-1.38-3.781-6.359-5.46-7.26-2.34-11.1-5.159-11.1-11.34,0-7.8,6.12-10.44,12.06-10.44,7.019,0,12.239,2.46,12.9,9.241l-7.2,1.679a5.236,5.236,0,0,0-5.58-4.979c-2.58,0-4.62,1.319-4.62,3.9,0,2.821,2.22,3.9,6.66,5.34,6.72,2.22,10.739,4.62,10.739,11.34,0,7.439-6,10.319-13.26,10.319-6.958,0-11.458-2.46-13.019-8.819Z" transform="translate(0 -6.628)" fill="#999"/>
    <path d="M44.28,213.226c1.1,4.784,1.65,9.018,1.65,9.018h.22s.439-4.289,1.43-8.963l4.124-18.7h6.764l-7.534,32.391H41.31l-4.124-17.048a49.8,49.8,0,0,1-1.32-8.908h-.22a55.127,55.127,0,0,1-1.375,8.963l-4.234,16.993h-9.4L13.1,194.583h7.094l4.18,18.588c1.044,4.784,1.54,9.073,1.54,9.073h.219a79.638,79.638,0,0,1,1.54-9.018l4.344-18.643h7.92Z" transform="translate(0 -6.628)" fill="#999"/>
    <path d="M395.521,227h-23.04V191.661h23.04v6.3h-15.78v8.159H393.66v6.12H379.741v8.46h15.78Z" transform="translate(0 -6.628)" fill="#999"/>
  </g>
</svg>
