<svg xmlns="http://www.w3.org/2000/svg" width="81" height="66" viewBox="0 0 81 66">
  <g>
    <path d="M42,1A30,30,0,1,1,12,31,30.034,30.034,0,0,1,42,1m0-1A31,31,0,1,0,73,31,31,31,0,0,0,42,0Z"/>
    <path d="M.5,66c0-9.949,8.5-18,19-18" fill="none" stroke="#000" stroke-miterlimit="10"/>
    <path d="M19.5,48c0-7.186,6.709-13,15-13" fill="none" stroke="#000" stroke-miterlimit="10"/>
    <path d="M49.444,47.568c0-6.947-6.709-12.568-15-12.568" fill="none" stroke="#000" stroke-miterlimit="10"/>
    <path d="M49.747,46.556c3.505-1.547,14.537,6.228,15.548,18.976" fill="none" stroke="#000" stroke-miterlimit="10"/>
    <line x1="81" y1="65.5" y2="65.5" fill="none" stroke="#000" stroke-miterlimit="10"/>
    <path d="M61,53.5c10.5,0,19,5.367,19,12" fill="none" stroke="#000" stroke-miterlimit="10"/>
  </g>
</svg>
